<svg xmlns:xlink="http://www.w3.org/1999/xlink" width="354" xmlns="http://www.w3.org/2000/svg" height="354" id="screenshot-8e2eb32b-0c4c-80b0-8001-f1f536b0ffc2" viewBox="0 0 354 354" style="-webkit-print-color-adjust: exact;" fill="none" version="1.1"><g id="shape-8e2eb32b-0c4c-80b0-8001-f1f536b0ffc2" width="354" height="354" rx="0" ry="0" style="fill: rgb(0, 0, 0);"><g id="shape-8e2eb32b-0c4c-80b0-8001-f1f536b0ffc3"><g id="fills-8e2eb32b-0c4c-80b0-8001-f1f536b0ffc3"><rect width="354" height="354" x="0" transform="matrix(1,0,0,1,0,0)" style="fill: none;" ry="0" fill="none" rx="0" y="0"/></g></g><g id="shape-8e2eb32b-0c4c-80b0-8001-f1f536b0ffc4"><g id="fills-8e2eb32b-0c4c-80b0-8001-f1f536b0ffc4"><ellipse rx="177" ry="177" cx="177" cy="177" transform="matrix(1,0,0,1,0,0)" style="fill: rgb(255, 255, 255);"/></g></g><g id="shape-8e2eb32b-0c4c-80b0-8001-f1f5569ce9b8"><g id="fills-8e2eb32b-0c4c-80b0-8001-f1f5569ce9b8"><path rx="0" ry="0" d="M185.176,96.167C180.17,91.944,172.83,91.944,167.824,96.167L100.741,152.792C97.734,155.328,96,159.051,96,162.973L96,246.651C96,254.024,102.007,260,109.417,260L151.903,260C155.608,260,158.611,257.012,158.611,253.326L158.611,197.706L194.389,197.706L194.389,253.326C194.389,257.01,197.394,260,201.097,260L243.583,260C250.993,260,257,254.024,257,246.651L257,162.973C257,159.051,255.266,155.328,252.259,152.792L185.176,96.167ZZ"/></g></g></g></svg>
